<svg width="87" height="22" viewBox="0 0 87 22" fill="none" xmlns="http://www.w3.org/2000/svg">
<g clip-path="url(#clip0_2103_2511)">
<path d="M0 13.8052C3.00273 9.4591 6.95368 9.4591 10.0354 12.2248C10.9046 13.015 11.8529 13.5681 12.8011 14.2002C13.9074 14.9904 15.1717 15.4646 16.515 15.5436C18.0954 15.7016 19.5177 15.2275 20.3869 13.8842C21.2561 12.4618 21.1771 10.8814 20.466 9.4591C19.8338 8.1948 18.5695 7.56266 17.1471 7.7207C15.4087 7.95775 14.3815 9.064 13.9864 10.6444C13.8283 11.1975 13.8283 11.8297 13.7493 12.5409C12.327 12.1458 11.7738 11.3556 11.7738 9.93322C11.8529 6.93049 11.7738 3.92777 11.7738 0.925049C12.485 0.925049 13.1172 0.925049 13.8283 0.925049C13.8283 2.34739 13.9074 3.76973 13.9074 5.11305C13.9074 5.82422 13.9074 6.21932 14.9346 5.98227C19.2016 4.95502 21.0191 5.58718 22.5995 8.58991C24.0218 11.1185 23.4687 14.2003 21.2561 16.3338C19.2016 18.3092 15.4087 18.4673 12.6431 16.7289C11.1417 15.7806 9.71935 14.8324 8.297 13.8052C6.16349 12.2248 5.05722 12.2248 3.08174 14.1212C2.13351 15.0695 1.02725 14.3583 0 14.6744C0 14.3583 0 14.1212 0 13.8052Z" fill="#4D4D4D"/>
<path d="M77.4387 21.0749C77.1226 20.5218 75.7793 20.9169 76.1744 19.6526C76.4905 18.7044 77.0436 18.7834 77.8338 18.9414C79.7302 19.2575 80.6785 17.9142 79.8883 16.0967C78.624 13.252 77.3597 10.4864 76.1744 7.7207C75.9373 7.16757 74.9101 6.45639 76.0954 5.98227C76.9646 5.6662 77.9918 5.66621 78.3869 6.93051C79.0191 9.14305 80.1253 11.2765 81.0735 13.4101C81.2316 13.7261 81.3896 13.9632 81.6267 14.2793C82.97 12.3038 83.1281 10.0123 83.9973 8.03678C84.6294 6.61443 85.2616 5.58719 87 5.82425C87 6.37738 87 6.93052 87 7.40463C85.4196 10.1703 84.1553 13.173 83.128 16.1757C82.4169 18.2302 81.5477 19.9687 79.7302 21.0749C79.0191 21.0749 78.2289 21.0749 77.4387 21.0749Z" fill="#4D4D4D"/>
<path d="M25.0491 11.8295C25.0491 8.35261 27.6567 5.745 31.0545 5.745C34.5314 5.745 37.218 8.35263 37.218 11.7505C37.218 15.1483 34.5314 17.8349 31.1336 17.9139C27.6567 17.9139 25.0491 15.2273 25.0491 11.8295ZM27.3406 11.7505C27.3406 13.963 29.0791 15.8594 31.1336 15.8594C33.109 15.8594 34.7684 14.042 34.7684 11.8295C34.7684 9.61692 33.109 7.7995 30.9755 7.7995C28.921 7.72048 27.3406 9.4589 27.3406 11.7505Z" fill="#4D4D4D"/>
<path d="M39.1145 11.8295C39.1145 8.43163 41.8012 5.745 45.199 5.745C48.6758 5.745 51.1254 8.19459 51.2044 11.6714C51.2835 15.3063 48.5968 17.9139 45.0409 17.9139C41.8012 17.8349 39.1145 15.0692 39.1145 11.8295ZM45.199 7.7995C43.0655 7.72048 41.5641 9.14282 41.4851 11.3554C41.4061 14.042 42.6704 15.7014 44.9619 15.7804C47.0164 15.8594 48.8338 14.042 48.9919 11.8295C49.1499 9.77495 47.3325 7.7995 45.199 7.7995Z" fill="#4D4D4D"/>
<path d="M55.6294 11.4342C58.158 9.69582 59.1853 6.85113 61.8719 5.9029C62.267 5.74486 62.8992 5.66586 63.4523 6.219C62.5041 7.64134 61.3188 8.90564 60.0545 10.0119C59.2643 10.7231 59.2643 11.1972 59.8964 11.9874C61.2398 13.6468 62.5041 15.3852 63.7684 17.1236C62.346 17.9138 61.3978 17.5187 60.6076 16.4125C59.9754 15.6223 59.4223 14.7531 58.7111 14.1209C58.3161 13.7258 58.237 12.6195 57.3678 12.9356C56.5776 13.2517 55.9455 13.9629 55.7874 14.9111C55.7084 15.4642 55.7084 16.0174 55.7084 16.4915C55.7874 17.2817 55.3133 17.5187 54.6021 17.5187C53.891 17.5187 53.6539 17.2026 53.6539 16.5705C53.6539 11.8293 53.6539 7.00919 53.6539 2.26804C53.6539 1.47785 53.97 1.16176 54.7602 1.24078C55.5504 1.24078 55.7874 1.63587 55.7874 2.34704C55.6294 5.27075 55.6294 8.19445 55.6294 11.4342Z" fill="#4D4D4D"/>
<path d="M70.248 5.74505C71.3542 5.74505 72.3815 6.06113 73.3297 6.53524C73.8038 6.7723 74.436 7.00936 74.0409 7.72053C73.7248 8.35268 73.3297 8.90581 72.4605 8.4317C71.5913 7.95758 70.643 7.64151 69.5368 7.72053C68.8256 7.79955 68.1935 8.0366 68.0354 8.82679C67.9564 9.53796 68.5096 9.85404 69.0627 10.0911C70.0899 10.4862 71.1962 10.8813 72.2234 11.2764C73.5668 11.8295 74.515 12.6987 74.357 14.2791C74.2779 15.8595 73.3297 16.8867 71.9074 17.3608C70.0109 18.072 68.1935 17.6769 66.455 16.8077C65.9019 16.4916 65.1117 16.2546 65.5858 15.3064C66.0599 14.3581 66.6921 14.5952 67.4033 14.9903C68.3515 15.5434 69.3788 15.8595 70.485 15.7015C71.1962 15.6224 71.8283 15.3854 71.9864 14.5952C72.1444 13.726 71.5913 13.3309 70.9591 13.0938C70.248 12.7777 69.6158 12.6197 68.9046 12.3827C66.376 11.5925 65.5858 10.4862 65.9809 8.35267C66.455 6.61425 67.8774 5.66603 70.248 5.74505Z" fill="#4D4D4D"/>
</g>
<defs>
<clipPath id="clip0_2103_2511">
<rect width="87" height="20.1499" fill="white" transform="translate(0 0.925049)"/>
</clipPath>
</defs>
</svg>
