<svg width="24" height="24" viewBox="0 0 24 24" fill="none" xmlns="http://www.w3.org/2000/svg">
<g clip-path="url(#clip0_227_108)">
<path d="M12 0.0600626C11.18 0.0600626 10.452 0.588063 10.199 1.36806L8.15705 7.13406C8.13403 7.21622 8.08607 7.28922 8.0198 7.34295C7.95352 7.39669 7.87219 7.42853 7.78705 7.43406L1.88105 7.68306C1.04905 7.75706 0.375046 8.30206 0.138046 9.06506C0.0219604 9.43796 0.0190963 9.83691 0.129816 10.2114C0.240536 10.586 0.459863 10.9192 0.760046 11.1691L5.41305 14.9801C5.55605 15.1001 5.61705 15.3031 5.56105 15.4901L3.95605 21.4611C3.84471 21.8355 3.85046 22.235 3.97253 22.606C4.0946 22.977 4.32716 23.3019 4.63905 23.5371C5.28405 24.0271 6.16505 24.0611 6.84605 23.6231L11.789 20.1751C11.8492 20.1309 11.9217 20.1067 11.9964 20.106C12.0711 20.1053 12.144 20.128 12.205 20.1711L17.173 23.6091C17.905 24.0411 18.767 23.9821 19.391 23.4891C19.973 23.0291 20.235 22.2791 20.077 21.5641L18.444 15.4851C18.4174 15.3939 18.4177 15.297 18.4449 15.206C18.472 15.115 18.5248 15.0338 18.597 14.9721L23.234 11.1891C23.5357 10.94 23.7565 10.6069 23.8685 10.2322C23.9805 9.85738 23.9786 9.45777 23.8631 9.08406C23.7476 8.71034 23.5237 8.37936 23.2198 8.13313C22.9158 7.8869 22.5456 7.73651 22.156 7.70106L16.207 7.45106C16.1262 7.44604 16.0488 7.41657 15.985 7.36657C15.9213 7.31658 15.8742 7.2484 15.85 7.17106L13.795 1.35106C13.6695 0.974501 13.4285 0.647076 13.1063 0.415315C12.7841 0.183554 12.397 0.0592485 12 0.0600626Z" fill="#FF9400"/>
</g>
<defs>
<clipPath id="clip0_227_108">
<rect width="24" height="24" fill="white"/>
</clipPath>
</defs>
</svg>
