<svg width="151" height="18" viewBox="0 0 151 18" fill="none" xmlns="http://www.w3.org/2000/svg">
<path d="M9.40001 13.6H0.700012V12.2L6.80001 3.10001H0.800011V1.40002H9.20001V2.80002L3.10001 11.8H9.40001V13.6Z" fill="#141414"/>
<path d="M17.3 13.6L16.9 12.3H16.8C16.4 12.9 15.9 13.2001 15.5 13.4001C15.1 13.6001 14.5 13.7 13.8 13.7C12.9 13.7 12.2 13.5 11.7 13C11.2 12.5 10.9 11.8001 10.9 10.9001C10.9 10.0001 11.3 9.20005 12 8.80005C12.7 8.30005 13.8 8.10003 15.2 8.00003H16.8V7.50003C16.8 6.90003 16.7 6.50004 16.4 6.20004C16.1 5.90004 15.7 5.80005 15.1 5.80005C14.6 5.80005 14.2 5.90003 13.7 6.00003C13.3 6.10003 12.9 6.30003 12.5 6.50003L11.9 5.10004C12.4 4.80004 12.9 4.60003 13.5 4.50003C14.1 4.40003 14.7 4.30005 15.2 4.30005C16.4 4.30005 17.2 4.60004 17.8 5.10004C18.4 5.60004 18.7 6.40003 18.7 7.50003V13.7H17.3V13.6ZM14.4 12.2C15.1 12.2 15.7 12 16.1 11.6C16.5 11.2 16.7 10.6001 16.7 9.90005V9.20004H15.5C14.6 9.20004 13.9 9.40004 13.5 9.70004C13.1 10 12.9 10.4 12.9 11C12.9 11.4 13 11.7 13.3 12C13.5 12.1 13.9 12.2 14.4 12.2Z" fill="#141414"/>
<path d="M26.2 4.20001C26.6 4.20001 26.9 4.20002 27.2 4.30002L27 6.10001C26.7 6.00001 26.4 6 26.1 6C25.3 6 24.7 6.30002 24.2 6.80002C23.7 7.30002 23.5 8.00002 23.5 8.80002V13.6H21.5V4.40002H23L23.3 6H23.4C23.7 5.5 24.1 5.00001 24.6 4.70001C25.1 4.40001 25.7 4.20001 26.2 4.20001Z" fill="#141414"/>
<path d="M33.1 13.7C31.7 13.7 30.6 13.3 29.8 12.5C29 11.7 28.6 10.5 28.6 9.10004C28.6 7.60004 29 6.40004 29.7 5.60004C30.4 4.70004 31.5 4.30005 32.8 4.30005C34 4.30005 35 4.70005 35.7 5.40005C36.4 6.10005 36.8 7.10005 36.8 8.40005V9.50003H30.7C30.7 10.4 31 11.1 31.4 11.6C31.8 12.1 32.5 12.3 33.3 12.3C33.8 12.3 34.3 12.2 34.8 12.1C35.3 12 35.8 11.8 36.3 11.6V13.2C35.8 13.4 35.3 13.6 34.9 13.7C34.3 13.7 33.7 13.7 33.1 13.7ZM32.7 5.70004C32.1 5.70004 31.6 5.90005 31.2 6.30005C30.8 6.70005 30.6 7.30003 30.5 8.00003H34.7C34.7 7.20003 34.5 6.70005 34.2 6.30005C33.8 5.90005 33.4 5.70004 32.7 5.70004Z" fill="#141414"/>
<path d="M45.2 13.6H38.2V12.4L42.8 5.90002H38.4V4.40002H44.9V5.80002L40.4 12.1H45.1V13.6H45.2Z" fill="#141414"/>
<path d="M51.4 13.7C50 13.7 48.9 13.3 48.1 12.5C47.3 11.7 46.9 10.5 46.9 9.10004C46.9 7.60004 47.3 6.40004 48 5.60004C48.7 4.70004 49.8 4.30005 51.1 4.30005C52.3 4.30005 53.3 4.70005 54 5.40005C54.7 6.10005 55.1 7.10005 55.1 8.40005V9.50003H49C49 10.4 49.3 11.1 49.7 11.6C50.1 12.1 50.8 12.3 51.6 12.3C52.1 12.3 52.6 12.2 53.1 12.1C53.6 12 54.1 11.8 54.6 11.6V13.2C54.1 13.4 53.6 13.6 53.2 13.7C52.5 13.7 52 13.7 51.4 13.7ZM51 5.70004C50.4 5.70004 49.9 5.90005 49.5 6.30005C49.1 6.70005 48.9 7.30003 48.8 8.00003H53C53 7.20003 52.8 6.70005 52.5 6.30005C52.1 5.90005 51.6 5.70004 51 5.70004Z" fill="#141414"/>
<path d="M62 4.20001C62.4 4.20001 62.7 4.20002 63 4.30002L62.8 6.10001C62.5 6.00001 62.2 6 61.9 6C61.1 6 60.5 6.30002 60 6.80002C59.5 7.30002 59.3 8.00002 59.3 8.80002V13.6H57.3V4.40002H58.8L59.1 6H59.2C59.5 5.5 59.9 5.00001 60.4 4.70001C60.9 4.40001 61.4 4.20001 62 4.20001Z" fill="#141414"/>
<path d="M72.3 13.6L71.1 9.30005C71 8.80005 70.7 7.80004 70.3 6.10004H70.2C69.9 7.60004 69.6 8.70005 69.4 9.30005L68.2 13.6H66L63.4 4.40005H65.4L66.6 8.90005C66.9 10.0001 67.1 11 67.2 11.8C67.3 11.4 67.3 10.9001 67.5 10.4001C67.6 9.90005 67.7 9.50004 67.8 9.20004L69.2 4.40005H71.3L72.7 9.20004C72.8 9.50004 72.9 9.90005 73 10.4001C73.1 11.0001 73.2 11.4 73.2 11.7H73.3C73.4 11 73.6 10.1 73.9 8.80005L75.1 4.30005H77.1L74.5 13.5H72.3V13.6Z" fill="#141414"/>
<path d="M85.3 13.6L85 12.4H84.9C84.6 12.8 84.2 13.2 83.7 13.4C83.2 13.6 82.6 13.8 82 13.8C80.9 13.8 80.1 13.5 79.5 13C78.9 12.5 78.7 11.6 78.7 10.5V4.5H80.7V10.2C80.7 10.9 80.8 11.4 81.1 11.8C81.4 12.2 81.8 12.3 82.5 12.3C83.3 12.3 83.9 12.1 84.3 11.6C84.7 11.1 84.9 10.3 84.9 9.10001V4.5H86.9V13.7H85.3V13.6Z" fill="#141414"/>
<path d="M88.9 17.7C88.3 17.7 87.8 17.6 87.4 17.5V16C87.8 16.1 88.2 16.2 88.6 16.2C89.4 16.2 89.8 15.7 89.8 14.8V4.5H91.8V14.9C91.8 15.8 91.6 16.6 91.1 17.1C90.5 17.4 89.8 17.7 88.9 17.7ZM89.7 2C89.7 1.7 89.8 1.40001 90 1.20001C90.2 1.00001 90.5 0.900024 90.8 0.900024C91.1 0.900024 91.4 1.00001 91.6 1.20001C91.8 1.40001 91.9 1.7 91.9 2C91.9 2.3 91.8 2.60002 91.6 2.80002C91.4 3.00002 91.1 3.10001 90.8 3.10001C90.4 3.10001 90.2 3.00002 90 2.80002C89.8 2.60002 89.7 2.3 89.7 2Z" fill="#141414"/>
<path d="M106.9 13.6L105.7 9.30005C105.6 8.80005 105.3 7.80004 104.9 6.10004H104.8C104.5 7.60004 104.2 8.70005 104 9.30005L102.8 13.6H100.6L98 4.40005H100L101.2 8.90005C101.5 10.0001 101.7 11 101.8 11.8C101.9 11.4 101.9 10.9001 102.1 10.4001C102.2 9.90005 102.3 9.50004 102.4 9.20004L103.8 4.40005H105.9L107.3 9.20004C107.4 9.50004 107.5 9.90005 107.6 10.4001C107.7 11.0001 107.8 11.4 107.8 11.7H107.9C108 11 108.2 10.1 108.5 8.80005L109.7 4.30005H111.7L109.1 13.5H106.9V13.6Z" fill="#141414"/>
<path d="M113.3 2C113.3 1.7 113.4 1.40001 113.6 1.20001C113.8 1.00001 114.1 0.900024 114.4 0.900024C114.7 0.900024 115 1.00001 115.2 1.20001C115.4 1.40001 115.5 1.7 115.5 2C115.5 2.3 115.4 2.60002 115.2 2.80002C115 3.00002 114.7 3.10001 114.4 3.10001C114 3.10001 113.8 3.00002 113.6 2.80002C113.4 2.60002 113.3 2.3 113.3 2ZM115.3 13.6H113.3V4.40002H115.3V13.6Z" fill="#141414"/>
<path d="M124.4 13.6H117.4V12.4L122 5.90002H117.6V4.40002H124.1V5.80002L119.6 12.1H124.3V13.6H124.4Z" fill="#141414"/>
<path d="M125.2 4.40002H127.3L129.2 9.60001C129.5 10.3 129.7 11 129.8 11.7H129.9C129.9 11.4 130 11 130.2 10.6C130.4 10.2 131 8.10002 132.3 4.40002H134.4L130.5 14.8C129.8 16.7 128.6 17.7 126.9 17.7C126.5 17.7 126 17.7 125.6 17.6V16.1C125.9 16.2 126.2 16.2 126.6 16.2C127.5 16.2 128.2 15.7 128.6 14.6L128.9 13.7L125.2 4.40002Z" fill="#141414"/>
<path d="M139.3 12.2C139.8 12.2 140.3 12.1 140.7 12V13.5C140.5 13.6 140.2 13.7 139.9 13.7C139.6 13.8 139.2 13.8 138.8 13.8C137 13.8 136 12.8 136 10.9V6H134.7V5.10001L136 4.40002L136.7 2.5H137.9V4.5H140.5V6H137.9V10.9C137.9 11.4 138 11.7 138.3 11.9C138.6 12.1 138.9 12.2 139.3 12.2Z" fill="#141414"/>
<path d="M146.7 13.7C145.3 13.7 144.2 13.3 143.4 12.5C142.6 11.7 142.2 10.5 142.2 9.10004C142.2 7.60004 142.6 6.40004 143.3 5.60004C144 4.70004 145.1 4.30005 146.4 4.30005C147.6 4.30005 148.6 4.70005 149.3 5.40005C150 6.10005 150.4 7.10005 150.4 8.40005V9.50003H144.3C144.3 10.4 144.6 11.1 145 11.6C145.5 12.1 146.1 12.3 146.9 12.3C147.4 12.3 147.9 12.2 148.4 12.1C148.9 12 149.4 11.8 149.9 11.6V13.2C149.4 13.4 148.9 13.6 148.5 13.7C147.9 13.7 147.4 13.7 146.7 13.7ZM146.4 5.70004C145.8 5.70004 145.3 5.90005 144.9 6.30005C144.5 6.70005 144.3 7.30003 144.2 8.00003H148.4C148.4 7.20003 148.2 6.70005 147.9 6.30005C147.5 5.90005 147 5.70004 146.4 5.70004ZM147.9 15.3C147.9 15.8 148.1 16 148.6 16C148.8 16 149.1 16.0001 149.5 15.9001V17.1C149.1 17.2 148.7 17.3 148.3 17.3C147.7 17.3 147.2 17.1 146.9 16.8C146.6 16.5 146.4 16.1 146.4 15.5C146.4 15.1 146.5 14.8001 146.7 14.4001C146.9 14.1001 147.3 13.7 147.8 13.3H149C148.6 13.7 148.3 14 148.1 14.3C148 14.7 147.9 15 147.9 15.3Z" fill="#141414"/>
</svg>
