<svg width="111" height="26" viewBox="0 0 111 26" fill="none" xmlns="http://www.w3.org/2000/svg">
<path d="M0.700012 16.5C4.50001 11 9.50001 11 13.4 14.5C14.5 15.5 15.7 16.2 16.9 17C18.3 18 19.9 18.6 21.6 18.7C23.6 18.9 25.4 18.3 26.5 16.6C27.6 14.8 27.5 12.8 26.6 11C25.8 9.4 24.2 8.60002 22.4 8.80002C20.2 9.10002 18.9 10.5 18.4 12.5C18.2 13.2 18.2 14 18.1 14.9C16.3 14.4 15.6 13.4 15.6 11.6C15.7 7.80001 15.6 4.00001 15.6 0.200012C16.5 0.200012 17.3 0.200012 18.2 0.200012C18.2 2.00001 18.3 3.8 18.3 5.5C18.3 6.4 18.3 6.90001 19.6 6.60001C25 5.30001 27.3 6.10002 29.3 9.90002C31.1 13.1 30.4 17 27.6 19.7C25 22.2 20.2 22.4 16.7 20.2C14.8 19 13 17.8 11.2 16.5C8.50001 14.5 7.10001 14.5 4.60001 16.9C3.40001 18.1 2.00001 17.2 0.700012 17.6C0.700012 17.2 0.700012 16.9 0.700012 16.5Z" fill="#141414"/>
<path d="M98.7 25.7C98.3 25 96.6 25.5 97.1 23.9C97.5 22.7 98.2 22.8 99.2 23C101.6 23.4 102.8 21.7 101.8 19.4C100.2 15.8 98.6 12.3 97.1 8.80001C96.8 8.10001 95.5 7.2 97 6.6C98.1 6.2 99.4 6.20001 99.9 7.80001C100.7 10.6 102.1 13.3 103.3 16C103.5 16.4 103.7 16.7 104 17.1C105.7 14.6 105.9 11.7 107 9.2C107.8 7.4 108.6 6.10001 110.8 6.40001C110.8 7.10001 110.8 7.80001 110.8 8.40001C108.8 11.9 107.2 15.7 105.9 19.5C105 22.1 103.9 24.3 101.6 25.7C100.7 25.7 99.7 25.7 98.7 25.7Z" fill="#141414"/>
<path d="M32.4 14C32.4 9.60003 35.7 6.30005 40 6.30005C44.4 6.30005 47.8 9.60005 47.8 13.9001C47.8 18.2001 44.4 21.6 40.1 21.7C35.7 21.7 32.4 18.3 32.4 14ZM35.3 13.9001C35.3 16.7001 37.5 19.1 40.1 19.1C42.6 19.1 44.7 16.8 44.7 14C44.7 11.2 42.6 8.90005 39.9 8.90005C37.3 8.80006 35.3 11.0001 35.3 13.9001Z" fill="#141414"/>
<path d="M50.2 14C50.2 9.70003 53.6 6.30005 57.9 6.30005C62.3 6.30005 65.4 9.40005 65.5 13.8C65.6 18.4 62.2 21.7 57.7 21.7C53.6 21.6 50.2 18.1 50.2 14ZM57.9 8.90005C55.2 8.80006 53.3 10.6001 53.2 13.4001C53.1 16.8001 54.7 18.9 57.6 19C60.2 19.1 62.5 16.8 62.7 14C62.9 11.4 60.6 8.90005 57.9 8.90005Z" fill="#141414"/>
<path d="M71.1 13.5C74.3 11.3 75.6 7.69998 79 6.49998C79.5 6.29998 80.3 6.2 81 6.9C79.8 8.7 78.3 10.3 76.7 11.7C75.7 12.6 75.7 13.2 76.5 14.2C78.2 16.3 79.8 18.5 81.4 20.7C79.6 21.7 78.4 21.2 77.4 19.8C76.6 18.8 75.9 17.7 75 16.9C74.5 16.4 74.4 15 73.3 15.4C72.3 15.8 71.5 16.7 71.3 17.9C71.2 18.6 71.2 19.3 71.2 19.9C71.3 20.9 70.7 21.2 69.8 21.2C68.9 21.2 68.6 20.8 68.6 20C68.6 14 68.6 7.9 68.6 1.9C68.6 0.900002 69 0.499984 70 0.599984C71 0.599984 71.3 1.09998 71.3 1.99998C71.1 5.69998 71.1 9.39998 71.1 13.5Z" fill="#141414"/>
<path d="M89.6 6.29998C91 6.29998 92.3 6.69998 93.5 7.29998C94.1 7.59998 94.9 7.89998 94.4 8.79998C94 9.59998 93.5 10.3 92.4 9.69997C91.3 9.09997 90.1 8.69998 88.7 8.79998C87.8 8.89998 87 9.19997 86.8 10.2C86.7 11.1 87.4 11.5 88.1 11.8C89.4 12.3 90.8 12.8 92.1 13.3C93.8 14 95 15.1 94.8 17.1C94.7 19.1 93.5 20.4 91.7 21C89.3 21.9 87 21.4 84.8 20.3C84.1 19.9 83.1 19.6 83.7 18.4C84.3 17.2 85.1 17.5 86 18C87.2 18.7 88.5 19.1 89.9 18.9C90.8 18.8 91.6 18.5 91.8 17.5C92 16.4 91.3 15.9 90.5 15.6C89.6 15.2 88.8 15 87.9 14.7C84.7 13.7 83.7 12.3 84.2 9.59996C84.8 7.39996 86.6 6.19998 89.6 6.29998Z" fill="#141414"/>
</svg>
